<svg width="40" height="43" viewBox="0 0 40 43" fill="none" xmlns="http://www.w3.org/2000/svg">
<path fill-rule="evenodd" clip-rule="evenodd" d="M26.6166 40.1274C30.436 39.0757 34.4348 38.5452 38.3139 38.0592C39.1494 37.9573 39.9251 38.5259 39.9848 39.3269C40.1041 40.1286 39.507 40.8617 38.7312 40.9636C34.9714 41.4314 31.0927 41.9321 27.4523 42.9445C26.6765 43.1641 25.8406 42.7121 25.6019 41.9344C25.3632 41.1574 25.8407 40.3476 26.6166 40.1274Z" fill="#86C6F4"/>
<path fill-rule="evenodd" clip-rule="evenodd" d="M15.0394 25.2172C21.1863 19.0623 28.109 13.6997 34.1365 7.37973C34.6736 6.78948 35.6285 6.75786 36.2253 7.30888C36.822 7.86048 36.8815 8.78801 36.2847 9.37826C30.2572 15.7164 23.3345 21.0966 17.1876 27.2696C16.5908 27.8458 15.6362 27.854 15.0394 27.2872C14.5023 26.7209 14.4426 25.7934 15.0394 25.2172Z" fill="#86C6F4"/>
<path fill-rule="evenodd" clip-rule="evenodd" d="M3.5207 1.54341C3.34166 5.06616 3.16298 8.58891 2.98394 12.1123C2.98394 12.9192 2.26745 13.5422 1.43195 13.503C0.596456 13.4631 2.09808e-05 12.7763 2.09808e-05 11.9688C0.179056 8.44018 0.357742 4.91216 0.536777 1.38413C0.596456 0.577224 1.31271 -0.0417174 2.14821 0.00219986C2.92403 0.0461172 3.58038 0.737085 3.5207 1.54341Z" fill="#86C6F4"/>
</svg>
